PathFileType	4	(X/Y/Z)	/Users/itak/Documents/Research/Walk-IL/dataset/trc/00565_00009.trc
DataRate	CameraRate	NumFrames	NumMarkers	Units	OrigDataRate	OrigDataStartFrame	OrigNumFrames
100.000000	100.000000	4	54	mm	100.000000	429	573
Frame#	Time	RPSI			LPSI			L3			STRN			T10			C7			CLAV			RBAK			LBAK			LSHO			LUPA			LAEL			LAOL			LWTS			LWPS			LFRA			LHPS			LHTS			RSHO			RUPA			RAEL			RAOL			RWTS			RWPS			RFRA			RIFD			RHTS			RHPS			RBHD			LFHD			RFHD			LBHD			RHIP			RASI			LASI			LKNE			LTHI			LANK			LTIP			LTOE			LMT1			LMT5			LHEE			RKNE			RTHI			RANK			RTIP			RTOE			RMT1			RMT5			RHEE			LHIP			LIFD			*53			
		X1	Y1	Z1	X2	Y2	Z2	X3	Y3	Z3	X4	Y4	Z4	X5	Y5	Z5	X6	Y6	Z6	X7	Y7	Z7	X8	Y8	Z8	X9	Y9	Z9	X10	Y10	Z10	X11	Y11	Z11	X12	Y12	Z12	X13	Y13	Z13	X14	Y14	Z14	X15	Y15	Z15	X16	Y16	Z16	X17	Y17	Z17	X18	Y18	Z18	X19	Y19	Z19	X20	Y20	Z20	X21	Y21	Z21	X22	Y22	Z22	X23	Y23	Z23	X24	Y24	Z24	X25	Y25	Z25	X26	Y26	Z26	X27	Y27	Z27	X28	Y28	Z28	X29	Y29	Z29	X30	Y30	Z30	X31	Y31	Z31	X32	Y32	Z32	X33	Y33	Z33	X34	Y34	Z34	X35	Y35	Z35	X36	Y36	Z36	X37	Y37	Z37	X38	Y38	Z38	X39	Y39	Z39	X40	Y40	Z40	X41	Y41	Z41	X42	Y42	Z42	X43	Y43	Z43	X44	Y44	Z44	X45	Y45	Z45	X46	Y46	Z46	X47	Y47	Z47	X48	Y48	Z48	X49	Y49	Z49	X50	Y50	Z50	X51	Y51	Z51	X52	Y52	Z52	X53	Y53	Z53	X54	Y54	Z54	

430	4.29	218.2431182861328	1010.255310058594	1016.198120117188	352.1382446289062	1017.25146484375	1027.285766601562	288.6320190429688	1109.462646484375	1026.860473632812	284.6792907714844	1299.8798828125	1263.557006835938	293.4299926757812	1235.30224609375	1019.64501953125	278.1072082519531	1510.610717773438	1068.3525390625	284.5374755859375	1410.81494140625	1244.217407226562	193.4091033935547	1385.167358398438	995.298828125	371.5107421875	1457.796630859375	1035.75927734375	450.2071533203125	1484.83984375	1135.904052734375	534.369140625	1362.332763671875	1138.77197265625	569.1982421875	1151.823974609375	1192.081298828125	526.3018798828125	1120.986328125	1104.5419921875	517.3314819335938	958.7552490234375	1354.324096679688	588.4209594726562	918.1270751953125	1323.033203125	575.5057373046875	1078.272338867188	1239.4248046875	577.292724609375	865.9069213867188	1353.613525390625	533.6679077148438	892.8426513671875	1398.606201171875	121.6085205078125	1473.943237304688	1124.917236328125	53.10618591308594	1408.380126953125	1108.3740234375	-0.212132528424263	1121.742065429688	1114.668701171875	30.13552856445312	1099.591674804688	1062.491088867188	28.38941383361816	918.2803344726562	1273.854736328125	-36.30366897583008	892.7408447265625	1227.372436523438	-7.922429084777832	1067.134521484375	1128.777465820312	20.79878234863281	747.6088256835938	1305.165161132812	9.19731330871582	831.812744140625	1312.010131835938	-35.25287246704102	821.7138671875	1253.679443359375	209.5698699951172	1692.46923828125	1160.783813476562	344.0405578613281	1703.142822265625	1319.036987304688	201.2913208007812	1701.745727539062	1300.964233398438	373.1636657714844	1692.011108398438	1188.588134765625	89.44120025634766	941.4442749023438	1135.078369140625	141.8906860351562	977.9812622070312	1223.004150390625	416.8770446777344	970.90869140625	1238.846923828125	396.8905334472656	510.7696533203125	1269.072021484375	437.8013000488281	672.0042724609375	1238.654663085938	384.1641235351562	34.54538345336914	1222.10205078125	395.9456481933594	256.8020935058594	1233.497680664062	304.7612609863281	45.41054534912109	1429.399169921875	279.0491943359375	50.10443878173828	1353.160278320312	387.9961547851562	39.09754943847656	1345.508544921875	335.1190185546875	39.8868522644043	1150.469848632812	122.1155624389648	511.3501281738281	1251.670776367188	89.72921752929688	796.4804077148438	1199.803588867188	168.8784790039062	104.0918960571289	999.317626953125	138.0650329589844	373.0997924804688	1205.1455078125	176.6325988769531	64.92752075195312	1209.9111328125	229.3807678222656	67.68885803222656	1154.84228515625	131.7732849121094	72.54668426513672	1119.12158203125	227.8639068603516	106.5794982910156	950.3053588867188	476.4419860839844	943.69921875	1166.324829101562	510.9059753417969	800.6786499023438	1413.694946289062	nan	nan	nan	
431	4.3	218.2034301757812	1010.985961914062	1019.677001953125	352.1100769042969	1017.820922851562	1031.008666992188	288.6957702636719	1110.193115234375	1030.547607421875	284.3370971679688	1300.239624023438	1267.641967773438	293.4348754882812	1236.0771484375	1023.565246582031	278.119873046875	1511.263305664062	1072.795654296875	284.2245178222656	1411.220947265625	1248.4990234375	193.4981536865234	1385.984985351562	999.42333984375	371.6278991699219	1458.474365234375	1040.301513671875	450.0675354003906	1485.426147460938	1140.6513671875	534.2290649414062	1362.933959960938	1143.979370117188	568.7803955078125	1152.86669921875	1198.570678710938	526.421875	1121.29345703125	1110.9248046875	515.5955200195312	961.9680786132812	1362.743408203125	586.7628784179688	920.8400268554688	1332.325439453125	574.703125	1079.90625	1246.71337890625	575.498046875	869.0988159179688	1363.615600585938	531.7388916015625	896.8115234375	1408.08740234375	121.5429916381836	1474.564697265625	1129.090698242188	53.05783081054688	1409.015014648438	1112.439575195312	-0.3439969122409821	1122.392211914062	1118.66650390625	29.96389389038086	1100.240356445312	1066.458740234375	28.42028045654297	919.07568359375	1277.944702148438	-36.31361770629883	893.460693359375	1231.541015625	-8.052440643310547	1067.8037109375	1132.817626953125	20.96805000305176	748.43505859375	1309.4267578125	9.353086471557617	832.6314697265625	1316.180786132812	-35.17795562744141	822.449951171875	1257.9150390625	209.4280700683594	1692.999389648438	1165.39111328125	343.7811889648438	1703.459838867188	1323.791259765625	200.9937438964844	1702.11328125	1305.52294921875	373.0169677734375	1692.478515625	1193.351806640625	89.09700012207031	942.2766723632812	1138.386840820312	141.3808441162109	978.8766479492188	1226.417358398438	416.1994323730469	971.0874633789062	1242.520629882812	396.5361328125	510.6209716796875	1270.72021484375	437.2871398925781	672.1219482421875	1241.190551757812	384.0726623535156	34.65233993530273	1222.114990234375	395.7709350585938	256.8023376464844	1234.22265625	304.720947265625	45.38331985473633	1429.453002929688	279.0001525878906	50.07002639770508	1353.181762695312	387.9625549316406	39.13253021240234	1345.514892578125	335.0440979003906	39.92673492431641	1150.467407226562	121.5689849853516	513.0299072265625	1257.814575195312	88.72892761230469	797.6524658203125	1203.649291992188	165.4916229248047	98.21479797363281	1017.388488769531	136.6796112060547	373.498779296875	1214.785278320312	173.42529296875	66.51622009277344	1229.28173828125	226.1052398681641	66.94121551513672	1174.025634765625	128.5578460693359	71.35368347167969	1138.245361328125	224.2717437744141	98.50312042236328	968.1358032226562	476.2608032226562	944.0497436523438	1170.014770507812	508.7107238769531	804.7491455078125	1424.188720703125	nan	nan	nan	
432	4.31	218.1068420410156	1011.66748046875	1023.130554199219	352.0261535644531	1018.335083007812	1034.682739257812	288.6989135742188	1110.882690429688	1034.189086914062	283.9545288085938	1300.584106445312	1271.6220703125	293.3879089355469	1236.797973632812	1027.404174804688	278.0771789550781	1511.8720703125	1077.104125976562	283.8812561035156	1411.60986328125	1252.658081054688	193.5072784423828	1386.749755859375	1003.4453125	371.678955078125	1459.107543945312	1044.711791992188	449.8784484863281	1485.979125976562	1145.253173828125	534.0184936523438	1363.490966796875	1149.003784179688	568.2667846679688	1153.82568359375	1204.732543945312	526.3796997070312	1121.579956054688	1117.01171875	513.8228759765625	964.991455078125	1370.67138671875	585.0342407226562	923.3780517578125	1341.085205078125	573.8175048828125	1081.424194335938	1253.607788085938	573.6351318359375	872.096435546875	1373.019775390625	529.7963256835938	900.5696411132812	1417.018310546875	121.4220962524414	1475.151733398438	1133.1591796875	52.95275497436523	1409.611206054688	1116.422973632812	-0.5013581514358521	1122.998779296875	1122.645263671875	29.75076293945312	1100.845825195312	1070.393432617188	28.47785377502441	919.7530517578125	1281.937133789062	-36.32170867919922	894.0974731445312	1235.634521484375	-8.206764221191406	1068.421875	1136.828979492188	21.17374992370605	749.1155395507812	1313.474975585938	9.569671630859375	833.295166015625	1320.205322265625	-35.08981704711914	823.0792846679688	1262.0224609375	209.2370452880859	1693.505004882812	1169.886108398438	343.4882202148438	1703.73193359375	1328.407592773438	200.6566772460938	1702.445922851562	1309.966796875	372.8268127441406	1692.916625976562	1197.977661132812	88.73642730712891	943.094482421875	1141.704711914062	140.8233642578125	979.7500610351562	1229.814208984375	415.501953125	971.26806640625	1246.156616210938	396.1431274414062	510.4782104492188	1272.433227539062	436.7301330566406	672.2213134765625	1243.780029296875	383.9810180664062	34.76505661010742	1222.1318359375	395.5715637207031	256.7984924316406	1234.990356445312	304.6804809570312	45.35388946533203	1429.510498046875	278.9483032226562	50.03588104248047	1353.208740234375	387.9290161132812	39.16928482055664	1345.5224609375	334.9500732421875	39.96731948852539	1150.474853515625	121.0787887573242	514.6083374023438	1263.689453125	87.77595520019531	798.7337036132812	1207.445190429688	162.0347900390625	92.69088745117188	1035.232055664062	135.3836822509766	373.8914184570312	1224.143920898438	170.5152282714844	68.36351776123047	1248.133422851562	223.0112915039062	66.50216674804688	1192.698608398438	125.4872436523438	70.47394561767578	1157.008666992188	220.5183563232422	90.8179931640625	985.7357177734375	475.9948425292969	944.3655395507812	1173.709350585938	506.4688110351562	808.6241455078125	1434.05615234375	nan	nan	nan	
433	4.32	217.9369201660156	1012.295837402344	1026.5703125	351.8703918457031	1018.79296875	1038.309936523438	288.6339416503906	1111.528198242188	1037.783447265625	283.5342712402344	1300.912841796875	1275.500244140625	293.2877197265625	1237.460083007812	1031.166381835938	277.9781188964844	1512.43505859375	1081.279418945312	283.5072937011719	1411.980834960938	1256.696655273438	193.4394836425781	1387.457153320312	1007.365600585938	371.664306640625	1459.69384765625	1048.989868164062	449.6414184570312	1486.495361328125	1149.710815429688	533.7387084960938	1364.001342773438	1153.848022460938	567.6655883789062	1154.692504882812	1210.564208984375	526.1887817382812	1121.842163085938	1122.796508789062	512.015869140625	967.810791015625	1378.107543945312	583.2383422851562	925.7163696289062	1349.305786132812	572.8558959960938	1082.811889648438	1260.106201171875	571.7012329101562	874.8743286132812	1381.821899414062	527.8313598632812	904.08740234375	1425.389404296875	121.2448501586914	1475.702880859375	1137.121459960938	52.79159927368164	1410.167602539062	1120.319702148438	-0.6832304000854492	1123.559692382812	1126.59326171875	29.50206756591797	1101.4052734375	1074.285888671875	28.5506591796875	920.3171997070312	1285.8310546875	-36.32887268066406	894.6514282226562	1239.644409179688	-8.381989479064941	1068.985229492188	1140.79833984375	21.40240287780762	749.6597290039062	1317.325073242188	9.824553489685059	833.8159790039062	1324.090576171875	-34.99322128295898	823.606201171875	1266.000122070312	208.997314453125	1693.984741210938	1174.263305664062	343.1583862304688	1703.962524414062	1332.884033203125	200.2818450927734	1702.7451171875	1314.293579101562	372.5913696289062	1693.325561523438	1202.46435546875	88.34860992431641	943.8952026367188	1145.053344726562	140.2349395751953	980.5958251953125	1233.21240234375	414.7996215820312	971.4541015625	1249.75439453125	395.718994140625	510.33935546875	1274.20361328125	436.1394653320312	672.3009643554688	1246.410400390625	383.8890686035156	34.88129043579102	1222.15234375	395.3470458984375	256.7897338867188	1235.789916992188	304.6418151855469	45.32208633422852	1429.571899414062	278.8949279785156	50.00186538696289	1353.241943359375	387.89599609375	39.20743179321289	1345.53076171875	334.8314819335938	40.0088005065918	1150.492553710938	120.6227951049805	516.0748291015625	1269.305541992188	86.86931610107422	799.7260131835938	1211.21533203125	158.5613098144531	87.54570770263672	1052.762573242188	134.1769561767578	374.2716064453125	1233.207397460938	167.9388580322266	70.44167327880859	1266.386840820312	220.1407775878906	66.35549926757812	1210.7802734375	122.6044692993164	69.89382934570312	1175.333251953125	216.6655731201172	83.56653594970703	1003.015319824219	475.6399841308594	944.6431884765625	1177.3974609375	504.1700439453125	812.2803344726562	1443.301391601562	nan	nan	nan	
